<svg width="1066" height="221" viewBox="0 0 1066 221" fill="none" xmlns="http://www.w3.org/2000/svg">
<g filter="url(#filter0_f_1_614)">
<path d="M1062.55 2.54999H2.55005V217.55H1062.55V2.54999Z" fill="#5C98C9"/>
</g>
<g filter="url(#filter1_f_1_614)">
<path d="M1050.55 13.55H550.55V205.55H1050.55V13.55Z" fill="#1B1717"/>
</g>
<path opacity="0.8" d="M860.55 43.55C831.55 43.5498 823.52 72.55 823.52 109.56C823.52 146.57 831.552 175.55 860.55 175.55C889.55 175.55 897.52 144.55 897.52 109.55C897.52 74.55 889.552 43.55 860.55 43.55ZM860.55 51.55C885.55 51.5502 888.52 85.55 888.52 109.55C888.52 133.55 885.552 167.55 860.55 167.55C835.55 167.55 832.52 133.55 832.52 109.55C832.52 85.55 835.552 51.55 860.55 51.55ZM860.55 59.55C849.5 59.55 843.98 69.375 842.55 85.05C841.194 99.91 841.155 115.27 842.55 131.05C843.936 146.73 849.504 157.55 860.55 157.55C871.6 157.55 877.24 146.74 878.55 131.05C879.901 114.81 879.78 99.5 878.55 85.05C877.215 69.37 871.596 59.55 860.55 59.55ZM860.55 68.55C867.55 68.55 868.705 75.051 868.55 87.55V128.55C868.55 140.98 867.55 148.55 860.55 148.55C853.55 148.55 852.55 140.976 852.55 128.55C852.509 114.51 852.506 100.81 852.55 87.55C852.395 75.12 853.55 68.55 860.55 68.55Z" fill="#FEFEFE"/>
<path opacity="0.8" d="M778.55 43.55C749.55 43.5498 741.52 72.55 741.52 109.56C741.52 146.57 749.552 175.55 778.55 175.55C807.55 175.55 815.52 144.55 815.52 109.55C815.52 74.55 807.552 43.55 778.55 43.55ZM778.55 51.55C803.55 51.5502 806.52 85.55 806.52 109.55C806.52 133.55 803.552 167.55 778.55 167.55C753.55 167.55 750.52 133.55 750.52 109.55C750.52 85.55 753.552 51.55 778.55 51.55ZM778.55 59.55C767.5 59.55 761.98 69.375 760.55 85.05C759.194 99.91 759.155 115.27 760.55 131.05C761.936 146.73 767.504 157.55 778.55 157.55C789.6 157.55 795.24 146.74 796.55 131.05C797.901 114.81 797.78 99.5 796.55 85.05C795.215 69.37 789.596 59.55 778.55 59.55ZM778.55 68.55C785.55 68.55 786.705 75.051 786.55 87.55V128.55C786.55 140.98 785.55 148.55 778.55 148.55C771.55 148.55 770.55 140.976 770.55 128.55C770.509 114.51 770.506 100.81 770.55 87.55C770.395 75.12 771.55 68.55 778.55 68.55Z" fill="#FEFEFE"/>
<path opacity="0.8" d="M696.55 43.55C667.55 43.5498 659.52 72.55 659.52 109.56C659.52 146.57 667.552 175.55 696.55 175.55C725.55 175.55 733.52 144.55 733.52 109.55C733.52 74.55 725.552 43.55 696.55 43.55ZM696.55 51.55C721.55 51.5502 724.52 85.55 724.52 109.55C724.52 133.55 721.552 167.55 696.55 167.55C671.55 167.55 668.52 133.55 668.52 109.55C668.52 85.55 671.552 51.55 696.55 51.55ZM696.55 59.55C685.5 59.55 679.98 69.375 678.55 85.05C677.194 99.91 677.155 115.27 678.55 131.05C679.936 146.73 685.504 157.55 696.55 157.55C707.6 157.55 713.24 146.74 714.55 131.05C715.901 114.81 715.78 99.5 714.55 85.05C713.215 69.37 707.596 59.55 696.55 59.55ZM696.55 68.55C703.55 68.55 704.705 75.051 704.55 87.55V128.55C704.55 140.98 703.55 148.55 696.55 148.55C689.55 148.55 688.55 140.976 688.55 128.55C688.509 114.51 688.506 100.81 688.55 87.55C688.395 75.12 689.55 68.55 696.55 68.55Z" fill="#FEFEFE"/>
<path opacity="0.8" d="M615.55 43.55C595.67 43.55 579.55 59.67 579.55 79.55V93.55C579.55 113.43 595.67 129.56 615.55 129.55C619.356 129.547 622.55 129.55 625.55 127.55C625.55 142.55 621.55 149.55 615.55 149.55C608.55 149.55 603.83 132.78 603.55 132.87L579.55 140.551C579.55 159.551 596 175.551 615.55 175.551C635.43 175.551 651.55 159.431 651.55 139.551L651.439 79.741C651.279 59.861 635.429 43.551 615.549 43.551L615.55 43.55ZM615.55 51.55C630.86 51.55 643.55 64.97 643.55 81.55L643.269 137.53C643.075 154.11 630.859 167.55 615.549 167.55C602.789 167.55 592.589 158.204 589.089 145.51L598.796 142.522C601.249 150.992 607.193 156.982 615.486 156.982C626.536 156.982 633.606 146.342 633.546 133.382V111.552C632.546 115.552 625.546 121.552 615.546 121.552C600.236 121.553 587.546 108.132 587.546 91.552V81.552C587.546 64.972 600.236 51.552 615.546 51.552L615.55 51.55ZM615.55 59.55C604.5 59.55 597.55 70.06 597.55 83.03V89.378C597.55 102.348 604.442 112.978 615.49 112.978C626.538 112.978 633.61 102.338 633.55 89.378L633.488 83.153C633.432 70.183 626.596 59.553 615.548 59.553L615.55 59.55ZM615.55 67.55C622.111 67.55 623.55 75.467 623.55 85.24V87.855C623.55 97.632 622.111 105.545 615.55 105.545C608.989 105.545 607.55 97.63 607.55 87.855V85.24C607.55 75.463 608.989 67.55 615.55 67.55Z" fill="white"/>
<path opacity="0.8" d="M452.55 46.55V172.55H513.55V143.55H481.56V46.55H459.55H452.55ZM459.55 53.55H474.56V143.55H474.55V150.55H506.55V165.55H459.55V150.55V53.55Z" fill="white"/>
<path opacity="0.8" d="M387.55 46.55L365.55 172.55H390.55L393.866 153.55H407.236L410.552 172.55H435.552L413.552 46.55H394.552H387.55ZM393.327 53.55H407.777L427.327 165.55H416.317L412.963 146.55H388.143L384.789 165.55H373.779L393.327 53.55ZM400.55 76.22L389.55 138.55H411.55L400.55 76.22ZM400.55 115.28L403.392 131.56H397.708L400.55 115.28Z" fill="white"/>
<path opacity="0.8" d="M282.55 46.55V172.55H311.55V114.05H324.55V172.55H354.55V46.55H324.55V93.05H311.55V46.55H289.55H282.55ZM289.55 53.55H304.55V100.05H331.55V53.55H347.55V165.55H331.55V107.05H304.55V165.55H289.55V53.55Z" fill="white"/>
<defs>
<filter id="filter0_f_1_614" x="4.88758e-05" y="-1.21593e-05" width="1065.1" height="220.1" filterUnits="userSpaceOnUse" color-interpolation-filters="sRGB">
<feFlood flood-opacity="0" result="BackgroundImageFix"/>
<feBlend mode="normal" in="SourceGraphic" in2="BackgroundImageFix" result="shape"/>
<feGaussianBlur stdDeviation="1.275" result="effect1_foregroundBlur_1_614"/>
</filter>
<filter id="filter1_f_1_614" x="550.436" y="13.4364" width="500.227" height="192.227" filterUnits="userSpaceOnUse" color-interpolation-filters="sRGB">
<feFlood flood-opacity="0" result="BackgroundImageFix"/>
<feBlend mode="normal" in="SourceGraphic" in2="BackgroundImageFix" result="shape"/>
<feGaussianBlur stdDeviation="0.0567948" result="effect1_foregroundBlur_1_614"/>
</filter>
</defs>
</svg>
